<?xml version="1.0" encoding="iso-8859-1"?>
<!-- Generator: Adobe Illustrator 19.0.0, SVG Export Plug-In . SVG Version: 6.00 Build 0)  -->
<svg version="1.1" id="Layer_1" xmlns="http://www.w3.org/2000/svg" xmlns:xlink="http://www.w3.org/1999/xlink" x="0px" y="0px"
	 viewBox="0 0 512 512" style="enable-background:new 0 0 512 512;" xml:space="preserve">
<path style="fill:#EDEDED;" d="M30.182,111.435c-11.104,0-19.581,9.921-17.849,20.888l30.434,192.753
	c1.387,8.783,8.957,15.253,17.849,15.253h343.301l20.739-228.894H30.182z"/>
<polygon style="fill:#D8D8DA;" points="388.517,111.435 367.778,340.329 403.92,340.329 424.659,111.435 "/>
<path style="fill:#E07188;" d="M484.894,51.2h-54.212l-3.374,36.141h57.586c9.98,0,18.071-8.091,18.071-18.071l0,0
	C502.964,59.291,494.874,51.2,484.894,51.2z"/>
<path style="fill:#DC4161;" d="M484.894,51.2h-18.071c9.98,0,18.071,8.091,18.071,18.071s-8.091,18.071-18.071,18.071h18.071
	c9.98,0,18.071-8.091,18.071-18.071S494.874,51.2,484.894,51.2z"/>
<path style="fill:#F8F8F9;" d="M370.447,192.753H57.223c-4.991,0-9.035-4.045-9.035-9.035c0-4.99,4.044-9.035,9.035-9.035h313.224
	c4.991,0,9.035,4.045,9.035,9.035C379.482,188.707,375.438,192.753,370.447,192.753z"/>
<path style="fill:#D8D8DA;" d="M358.4,277.082H69.27c-4.991,0-9.035-4.045-9.035-9.035c0-4.99,4.044-9.035,9.035-9.035H358.4
	c4.991,0,9.035,4.045,9.035,9.035C367.435,273.037,363.391,277.082,358.4,277.082z"/>
<path style="fill:#F8F8F9;" d="M165.647,313.223c-4.991,0-9.035-4.045-9.035-9.035V147.576c0-4.99,4.044-9.035,9.035-9.035
	s9.035,4.045,9.035,9.035v156.612C174.682,309.178,170.638,313.223,165.647,313.223z"/>
<path style="fill:#D8D8DA;" d="M274.07,313.223c-4.991,0-9.035-4.045-9.035-9.035V147.576c0-4.99,4.044-9.035,9.035-9.035
	c4.991,0,9.035,4.045,9.035,9.035v156.612C283.106,309.178,279.061,313.223,274.07,313.223z"/>
<g>
	<circle style="fill:#797781;" cx="117.459" cy="436.706" r="24.094"/>
	<circle style="fill:#797781;" cx="334.306" cy="436.706" r="24.094"/>
</g>
<g>
	<path style="fill:#58575D;" d="M117.459,412.612c-3.197,0-6.243,0.636-9.035,1.767c8.827,3.576,15.059,12.217,15.059,22.327
		c0,10.11-6.232,18.75-15.059,22.327c2.793,1.131,5.838,1.767,9.035,1.767c13.307,0,24.094-10.787,24.094-24.094
		C141.553,423.399,130.766,412.612,117.459,412.612z"/>
	<path style="fill:#58575D;" d="M334.306,412.612c-3.197,0-6.243,0.636-9.035,1.767c8.827,3.576,15.059,12.217,15.059,22.327
		c0,10.11-6.232,18.75-15.059,22.327c2.792,1.131,5.838,1.767,9.035,1.767c13.307,0,24.094-10.787,24.094-24.094
		C358.4,423.399,347.613,412.612,334.306,412.612z"/>
</g>
<g>
	<path style="fill:#2E2D31;" d="M117.459,403.576c-18.267,0-33.129,14.861-33.129,33.129c0,18.268,14.862,33.129,33.129,33.129
		s33.129-14.861,33.129-33.129C150.588,418.438,135.726,403.576,117.459,403.576z M117.459,451.765
		c-8.304,0-15.059-6.755-15.059-15.059c0-8.304,6.755-15.059,15.059-15.059s15.059,6.755,15.059,15.059
		C132.517,445.01,125.763,451.765,117.459,451.765z"/>
	<path style="fill:#2E2D31;" d="M484.894,42.165h-54.212c-0.006,0-0.01,0.002-0.016,0.002c-4.62,0.002-8.544,3.512-8.981,8.193
		l-26.232,280.934H52.897L19.609,120.47h361.68c4.991,0,9.035-4.045,9.035-9.035s-4.044-9.035-9.035-9.035H9.035
		c-2.642,0-5.153,1.157-6.869,3.166c-1.717,2.009-2.467,4.668-2.055,7.279l36.141,228.894c0.693,4.391,4.479,7.626,8.924,7.626
		h348.589l-6.046,64.746c-0.772,7.731-7.213,13.56-14.983,13.56h-6.563c-3.944-13.888-16.732-24.094-31.867-24.094
		s-27.923,10.206-31.867,24.094H177.694c-4.991,0-9.035,4.045-9.035,9.035c0,4.99,4.044,9.035,9.035,9.035h124.745
		c3.944,13.888,16.732,24.094,31.867,24.094s27.923-10.206,31.867-24.094h6.563c17.092,0,31.263-12.825,32.97-29.892l29.832-319.472
		h49.356C499.839,96.376,512,84.217,512,69.27S499.839,42.165,484.894,42.165z M334.306,451.765
		c-8.304,0-15.059-6.755-15.059-15.059c0-8.304,6.755-15.059,15.059-15.059s15.059,6.755,15.059,15.059
		C349.365,445.01,342.61,451.765,334.306,451.765z M484.894,78.306h-47.668l1.688-18.071h45.98c4.983,0,9.035,4.053,9.035,9.035
		S489.877,78.306,484.894,78.306z"/>
</g>
<g>
</g>
<g>
</g>
<g>
</g>
<g>
</g>
<g>
</g>
<g>
</g>
<g>
</g>
<g>
</g>
<g>
</g>
<g>
</g>
<g>
</g>
<g>
</g>
<g>
</g>
<g>
</g>
<g>
</g>
</svg>
