<?xml version="1.0" encoding="iso-8859-1"?>
<!-- Generator: Adobe Illustrator 19.0.0, SVG Export Plug-In . SVG Version: 6.00 Build 0)  -->
<svg version="1.1" id="Layer_1" xmlns="http://www.w3.org/2000/svg" xmlns:xlink="http://www.w3.org/1999/xlink" x="0px" y="0px"
	 viewBox="0 0 511.939 511.939" style="enable-background:new 0 0 511.939 511.939;" xml:space="preserve">
<circle style="fill:#ECF0F1;" cx="255.969" cy="255.969" r="255.969"/>
<path style="fill:#6B7F9E;" d="M161.039,431.419h247.445c0,0-11.406-94.501-37.408-140.004
	c-9.935-17.416-15.147-40.536-17.723-62.49c-0.429-3.618-0.797-7.175-1.104-10.732c-2.637-30.846-0.675-56.848-0.675-56.848
	s27.657-9.751,27.657-42.253c0-32.318-36.979-50.164-37.347-50.348V50.041h-16.803v22.69l-40.106,54.518h-0.429L244.44,72.731
	v-22.69h-16.803v18.704c-0.307,0.123-37.347,18.029-37.347,50.348c0,32.502,27.596,42.253,27.596,42.253s2.024,26.002-0.613,56.848
	c-0.307,3.496-0.675,7.114-1.104,10.732c-2.637,21.954-7.788,45.012-17.723,62.49C172.445,336.918,161.039,431.419,161.039,431.419z
	"/>
<path style="fill:#FFE356;" d="M353.046,215.986H208.32c-0.307,3.986-0.736,8.034-1.165,12.081h147.057
	C353.782,223.958,353.353,219.972,353.046,215.986z"/>
<path style="fill:#F5EDEE;" d="M297.302,297.609c-1.227,0-2.392-0.736-2.821-1.962c-10.303-26.983-10.609-49.06-9.321-61.999
	c-7.666,11.222-18.336,30.662-17.11,50.654c0.123,1.656-1.165,3.128-2.821,3.189c-1.717,0.061-3.128-1.165-3.189-2.821
	c-2.085-33.177,24.837-63.471,25.94-64.698c0.92-1.043,2.514-1.288,3.741-0.613c1.226,0.675,1.84,2.146,1.41,3.496
	c-0.061,0.307-8.524,29.865,6.991,70.646c0.613,1.594-0.184,3.312-1.778,3.925c-0.368,0.123-0.736,0.184-1.104,0.184H297.302z"/>
<path style="fill:#FEFEFE;" d="M209.547,160.793c-0.552-0.245-1.043-0.491-1.533-0.736l2.76-5.09
	c0.368,0.184,0.736,0.368,1.104,0.552c4.415,1.84,7.911,1.104,11.774-1.778c3.802-2.882,7.42-8.156,10.241-14.595
	c6.5-14.473,8.831-34.955,4.906-46.545l5.519-1.84c4.477,13.982,1.778,34.894-5.151,50.716c-3.066,6.991-7.052,13.001-12.02,16.864
	c-4.845,3.802-11.222,5.274-17.478,2.514l-0.184-0.061H209.547z"/>
<path style="fill:#83CF8F;" d="M381.072,313.799c3.557,6.255,1.41,14.166-4.845,17.784l-90.086,51.881
	c-6.194,3.557-14.166,1.41-17.723-4.783l-89.841-156.01c-3.618-6.194,16.006-97.568,16.006-97.568s93.091,26.492,96.648,32.686
	l89.902,156.071L381.072,313.799z M229.416,152.821c4.231,7.359,1.717,16.803-5.642,21.034c-7.359,4.231-16.803,1.717-21.034-5.642
	c-4.293-7.359-1.717-16.803,5.642-21.034C215.74,142.887,225.184,145.462,229.416,152.821z"/>
<path style="fill:#FF7069;" d="M153.312,373.835c-3.312,6.378-11.222,8.769-17.539,5.458l-92.11-48.324
	c-6.378-3.373-8.769-11.222-5.458-17.539l83.708-159.383c3.312-6.378,91.006-38.696,91.006-38.696s27.412,92.723,24.101,99.101
	l-83.708,159.444V373.835z M208.197,159.567c-3.986,7.543-13.246,10.425-20.789,6.5c-7.543-3.925-10.425-13.246-6.439-20.789
	c3.925-7.543,13.246-10.425,20.789-6.5c7.543,3.986,10.425,13.246,6.5,20.789H208.197z"/>
<path style="fill:#FEFEFE;" d="M190.168,148.651c0.184-4.477,1.901-9.321,4.538-14.35c8.095-15.331,24.837-32.931,37.653-40.781
	c4.354-2.576,8.156-2.944,11.958-2.637l0.061,0.245l-0.613,4.17c-1.349-0.184-4.599,0.797-8.401,3.128
	c-3.802,2.33-8.279,5.826-12.756,9.935c-8.892,8.279-17.907,19.256-22.813,28.577c-2.392,4.599-3.802,8.831-3.863,11.836
	c0,3.066,0.736,4.538,3.005,5.765l9.935,3.925c-0.92,2.024-2.024,3.618-3.373,4.783c-0.184-0.123-9.076-3.495-9.199-3.618
	l-0.184-0.123c-4.17-2.208-6.132-6.623-5.887-10.977L190.168,148.651z"/>
<g>
	<path style="fill:#FFFFFF;" d="M93.704,298.897c1.778-1.41,3.863-2.576,6.255-3.373l2.453,7.298
		c-2.76,0.675-4.845,2.392-6.316,5.335c-1.472,2.944-1.717,5.09-0.736,6.623c0.981,1.472,2.146,2.085,3.496,1.778
		c1.41-0.307,3.066-1.84,5.029-4.477c1.84-2.944,4.293-5.213,7.236-6.868c2.944-1.656,6.316-1.533,9.996,0.307
		c2.944,1.472,4.783,4.047,5.519,7.788c0.736,3.741,0.245,7.42-1.533,10.977c-1.656,3.373-3.618,5.948-5.703,7.727
		c-2.085,1.778-4.354,3.128-6.807,3.863l-2.392-7.298c2.76-0.613,5.274-2.821,7.543-6.562c1.594-3.25,1.962-5.581,0.981-7.114
		c-0.981-1.533-2.392-2.208-4.17-2.085c-1.778,0.061-3.618,1.656-5.581,4.783c-1.778,2.76-4.047,4.967-6.684,6.684
		c-2.637,1.656-5.765,1.656-9.321-0.184c-3.189-1.594-5.151-4.293-5.703-8.034c-0.552-3.679-0.123-7.052,1.349-9.935
		c1.717-3.373,3.434-5.826,5.151-7.298L93.704,298.897z M171.525,231.807l-36.427-18.275l13.369-26.738l6.807,3.434l-9.812,19.501
		l7.788,3.925l7.359-14.595l6.746,3.373l-7.359,14.595l8.279,4.17l9.751-19.44l6.807,3.434l-13.369,26.738L171.525,231.807z
		 M122.343,238.798l29.62,14.902l9.751-19.44l6.807,3.434l-13.43,26.676l-36.427-18.275L122.343,238.798z M116.578,274.489
		l11.038,12.449l5.519-10.916l-16.558-1.594V274.489z M134.056,306.317l-29.068-32.87l3.679-7.236l43.663,3.741l-3.863,7.788
		l-6.684-0.675l-8.279,16.496l4.477,5.029l-3.925,7.788V306.317z"/>
	<path style="fill:#FFFFFF;" d="M318.091,287c2.269-1.349,3.68-3.25,4.17-5.703c0.552-2.392,0.061-4.783-1.288-7.052
		c-1.41-2.269-3.25-3.741-5.642-4.415c-2.392-0.675-4.722-0.307-7.052,1.104c-2.208,1.349-3.618,3.25-4.109,5.642
		c-0.552,2.392-0.061,4.722,1.288,7.052c1.41,2.33,3.312,3.802,5.642,4.477c2.392,0.675,4.722,0.307,6.991-1.043V287z
		 M309.077,296.628c-4.783-1.165-8.463-3.986-11.161-8.401c-2.637-4.415-3.434-9.015-2.269-13.798s3.986-8.463,8.401-11.161
		c4.415-2.637,9.015-3.434,13.798-2.208c4.783,1.165,8.463,3.986,11.161,8.401c2.637,4.415,3.434,9.015,2.269,13.798
		c-1.165,4.783-3.986,8.463-8.401,11.161c-4.415,2.637-9.015,3.434-13.798,2.269V296.628z M280.561,319.502l-2.392-83.892
		l10.18-6.132l2.453,83.892l-10.241,6.194V319.502z M260.323,278.414c2.33-1.41,3.741-3.373,4.293-5.826
		c0.491-2.514,0.061-4.906-1.349-7.236c-1.41-2.392-3.373-3.863-5.765-4.538c-2.392-0.675-4.845-0.307-7.175,1.104
		c-2.33,1.41-3.741,3.312-4.231,5.765c-0.552,2.453-0.061,4.845,1.349,7.236c1.41,2.33,3.373,3.863,5.765,4.599
		c2.453,0.675,4.845,0.368,7.175-1.104H260.323z M251.063,288.042c-4.845-1.165-8.585-4.047-11.284-8.463
		c-2.698-4.477-3.434-9.076-2.269-13.859c1.165-4.845,3.986-8.585,8.463-11.284c4.415-2.698,9.076-3.434,13.859-2.269
		c4.845,1.165,8.585,3.986,11.284,8.463c2.698,4.415,3.434,9.076,2.269,13.859c-1.165,4.845-3.986,8.585-8.463,11.284
		C260.507,288.471,255.847,289.207,251.063,288.042z"/>
</g>
<g>
</g>
<g>
</g>
<g>
</g>
<g>
</g>
<g>
</g>
<g>
</g>
<g>
</g>
<g>
</g>
<g>
</g>
<g>
</g>
<g>
</g>
<g>
</g>
<g>
</g>
<g>
</g>
<g>
</g>
</svg>
